<?xml version="1.0" encoding="utf-8"?>
<!-- Generator: Adobe Illustrator 22.1.0, SVG Export Plug-In . SVG Version: 6.00 Build 0)  -->
<svg version="1.1" id="Lager_1" xmlns="http://www.w3.org/2000/svg" xmlns:xlink="http://www.w3.org/1999/xlink" x="0px" y="0px"
	 viewBox="0 0 1366 768" style="enable-background:new 0 0 1366 768;" xml:space="preserve">
<style type="text/css">
	.st0{fill:#F40000;}
	.st1{fill:#374049;}
	.st2{fill:#8094AA;}
	.st3{fill:#65ADEF;}
	.st4{fill:#FFFF00;}
</style>
<g>
	<ellipse class="st0" cx="447.7" cy="309.2" rx="6.8" ry="7.2"/>
	<path class="st1" d="M429.3,391.1H465l-10.5-81.3c-5.3-2.4-9.8-2.4-13.7,0L429.3,391.1z"/>
	<g>
		<g>
			
				<rect x="438.2" y="420.4" transform="matrix(2.559791e-12 -1 1 2.559791e-12 24.7045 870.4705)" class="st2" width="18.8" height="5"/>
		</g>
		
			<rect x="437.8" y="361.3" transform="matrix(2.511830e-12 -1 1 2.511830e-12 83.4157 810.9327)" class="st2" width="18.8" height="5"/>
		<g>
			<polyline class="st1" points="464.9,390.3 482.7,395.5 482.7,395.5 464.9,395.5 			"/>
			<polyline class="st2" points="464.9,395.5 482.7,395.5 482.7,400.8 464.9,400.8 			"/>
		</g>
		<g>
			<polygon class="st1" points="411.6,395.1 429.4,395.1 429.4,389.8 411.6,395.1 			"/>
			
				<rect x="411.6" y="395.1" transform="matrix(-1 -4.484159e-11 4.484159e-11 -1 841.0463 795.4007)" class="st2" width="17.8" height="5.3"/>
		</g>
		<ellipse class="st1" cx="447.6" cy="390.7" rx="19.8" ry="22.3"/>
		<ellipse class="st2" cx="447.6" cy="395.9" rx="19.8" ry="22.3"/>
		<ellipse cx="447.8" cy="396.6" rx="13.4" ry="16.6"/>
	</g>
</g>
<g>
	<ellipse class="st0" cx="354.4" cy="325.4" rx="6.8" ry="6.4"/>
	<path class="st1" d="M336,397.8h35.7l-10.5-71.9c-5.3-2.1-9.8-2.1-13.7,0L336,397.8z"/>
	<g>
		<g>
			
				<rect x="345.9" y="423.5" transform="matrix(-3.001982e-12 -1 1 -3.001982e-12 -71.6888 780.2452)" class="st2" width="16.7" height="5"/>
		</g>
		
			<rect x="345.5" y="371.2" transform="matrix(-3.056161e-12 -1 1 -3.056161e-12 -19.7839 727.5139)" class="st2" width="16.7" height="5"/>
		<g>
			<polyline class="st1" points="371.6,397.1 389.4,401.7 389.4,401.7 371.6,401.7 			"/>
			<polyline class="st2" points="371.6,401.7 389.4,401.7 389.4,406.4 371.6,406.4 			"/>
		</g>
		<g>
			<polygon class="st1" points="318.3,401.4 336.1,401.4 336.1,396.7 318.3,401.4 			"/>
			
				<rect x="318.3" y="401.4" transform="matrix(-1 -4.484159e-11 4.484159e-11 -1 654.4277 807.3667)" class="st2" width="17.8" height="4.7"/>
		</g>
		<ellipse class="st1" cx="354.3" cy="397.5" rx="19.8" ry="19.8"/>
		<ellipse class="st2" cx="354.3" cy="402.1" rx="19.8" ry="19.8"/>
		<ellipse cx="354.5" cy="402.7" rx="13.4" ry="14.7"/>
	</g>
</g>
<g>
	<ellipse class="st0" cx="270.6" cy="339.5" rx="6.8" ry="5.5"/>
	<path class="st1" d="M252.2,401.9h35.7l-10.5-62c-5.3-1.8-9.8-1.8-13.7,0L252.2,401.9z"/>
	<g>
		<g>
			
				<rect x="263.3" y="423.6" transform="matrix(-1.064653e-11 -1 1 -1.064653e-11 -155.6752 696.5712)" class="st2" width="14.4" height="5"/>
		</g>
		
			<rect x="262.9" y="378.6" transform="matrix(-1.077354e-11 -1 1 -1.077354e-11 -111.0305 651.1001)" class="st2" width="14.4" height="5"/>
		<g>
			<polyline class="st1" points="287.8,401.3 305.6,405.3 305.6,405.3 287.8,405.3 			"/>
			<polyline class="st2" points="287.8,405.3 305.6,405.3 305.6,409.3 287.8,409.3 			"/>
		</g>
		<g>
			<polygon class="st1" points="234.5,404.9 252.3,404.9 252.3,400.9 234.5,404.9 			"/>
			
				<rect x="234.5" y="404.9" transform="matrix(-1 -4.484159e-11 4.484159e-11 -1 486.7674 813.8638)" class="st2" width="17.8" height="4"/>
		</g>
		<ellipse class="st1" cx="270.4" cy="401.6" rx="19.8" ry="17"/>
		<ellipse class="st2" cx="270.4" cy="405.6" rx="19.8" ry="17"/>
		<ellipse cx="270.7" cy="406.1" rx="13.4" ry="12.6"/>
	</g>
</g>
<rect x="231" y="349.5" class="st2" width="342.5" height="31"/>
<polygon class="st1" points="573.5,294 231,349.5 231,349.5 573.5,349.5 "/>
<g>
	<g>
		<ellipse class="st0" cx="777.8" cy="309.2" rx="6.8" ry="7.2"/>
		<path class="st1" d="M796.2,391.1h-35.7l10.5-81.3c5.3-2.4,9.8-2.4,13.7,0L796.2,391.1z"/>
		<g>
			<g>
				
					<rect x="768.5" y="420.4" transform="matrix(4.230578e-11 -1 1 4.230578e-11 355.0295 1200.7955)" class="st2" width="18.8" height="5"/>
			</g>
			
				<rect x="768.9" y="361.3" transform="matrix(4.240259e-11 -1 1 4.240259e-11 414.5672 1142.0842)" class="st2" width="18.8" height="5"/>
			<g>
				<polyline class="st1" points="760.6,390.3 742.8,395.5 742.8,395.5 760.6,395.5 				"/>
				<polyline class="st2" points="760.6,395.5 742.8,395.5 742.8,400.8 760.6,400.8 				"/>
			</g>
			<g>
				<polygon class="st1" points="813.9,395.1 796.1,395.1 796.1,389.8 813.9,395.1 				"/>
				<rect x="796.1" y="395.1" class="st2" width="17.8" height="5.3"/>
			</g>
			<ellipse class="st1" cx="777.9" cy="390.7" rx="19.8" ry="22.3"/>
			<ellipse class="st2" cx="777.9" cy="395.9" rx="19.8" ry="22.3"/>
			<ellipse cx="777.7" cy="396.6" rx="13.4" ry="16.6"/>
		</g>
	</g>
	<g>
		<ellipse class="st0" cx="871.1" cy="325.4" rx="6.8" ry="6.4"/>
		<path class="st1" d="M889.5,397.8h-35.7l10.5-71.9c5.3-2.1,9.8-2.1,13.7,0L889.5,397.8z"/>
		<g>
			<g>
				
					<rect x="862.9" y="423.5" transform="matrix(4.791906e-11 -1 1 4.791906e-11 445.2548 1297.1888)" class="st2" width="16.7" height="5"/>
			</g>
			
				<rect x="863.3" y="371.2" transform="matrix(4.791906e-11 -1 1 4.791906e-11 497.9861 1245.2839)" class="st2" width="16.7" height="5"/>
			<g>
				<polyline class="st1" points="853.9,397.1 836.1,401.7 836.1,401.7 853.9,401.7 				"/>
				<polyline class="st2" points="853.9,401.7 836.1,401.7 836.1,406.4 853.9,406.4 				"/>
			</g>
			<g>
				<polygon class="st1" points="907.2,401.4 889.4,401.4 889.4,396.7 907.2,401.4 				"/>
				<rect x="889.4" y="401.4" class="st2" width="17.8" height="4.7"/>
			</g>
			<ellipse class="st1" cx="871.2" cy="397.5" rx="19.8" ry="19.8"/>
			<ellipse class="st2" cx="871.2" cy="402.1" rx="19.8" ry="19.8"/>
			<ellipse cx="871" cy="402.7" rx="13.4" ry="14.7"/>
		</g>
	</g>
	<g>
		<ellipse class="st0" cx="954.9" cy="339.5" rx="6.8" ry="5.5"/>
		<path class="st1" d="M973.3,401.9h-35.7l10.5-62c5.3-1.8,9.8-1.8,13.7,0L973.3,401.9z"/>
		<g>
			<g>
				
					<rect x="947.9" y="423.6" transform="matrix(5.551388e-11 -1 1 5.551388e-11 528.9288 1381.1752)" class="st2" width="14.4" height="5"/>
			</g>
			
				<rect x="948.3" y="378.6" transform="matrix(5.564000e-11 -1 1 5.564000e-11 574.3999 1336.5305)" class="st2" width="14.4" height="5"/>
			<g>
				<polyline class="st1" points="937.7,401.3 919.9,405.3 919.9,405.3 937.7,405.3 				"/>
				<polyline class="st2" points="937.7,405.3 919.9,405.3 919.9,409.3 937.7,409.3 				"/>
			</g>
			<g>
				<polygon class="st1" points="991,404.9 973.2,404.9 973.2,400.9 991,404.9 				"/>
				<rect x="973.2" y="404.9" class="st2" width="17.8" height="4"/>
			</g>
			<ellipse class="st1" cx="955.1" cy="401.6" rx="19.8" ry="17"/>
			<ellipse class="st2" cx="955.1" cy="405.6" rx="19.8" ry="17"/>
			<ellipse cx="954.8" cy="406.1" rx="13.4" ry="12.6"/>
		</g>
	</g>
	
		<rect x="652" y="349.5" transform="matrix(-1 -4.489843e-11 4.489843e-11 -1 1646.5 729.9905)" class="st2" width="342.5" height="31"/>
	<polygon class="st1" points="652,294 994.5,349.5 994.5,349.5 652,349.5 	"/>
</g>
<path class="st2" d="M693.3,508.5c-57.3-7.9-108.9-6.8-156.9,0L505,397c74-8.2,145.9-9.1,215,0L693.3,508.5z"/>
<path class="st1" d="M633.5,220.5c-13.6-3.2-26.7-3.5-39,0l-89,177c78.3-8.8,150.9-9.9,215,0L633.5,220.5z"/>
<g>
	<g>
		<ellipse class="st1" cx="673.8" cy="418.6" rx="23.4" ry="18.4"/>
		<ellipse class="st2" cx="673.8" cy="424.6" rx="23.4" ry="18.4"/>
		<ellipse cx="673.4" cy="424.9" rx="16.1" ry="12.7"/>
	</g>
	<g>
		<ellipse class="st1" cx="614.8" cy="418.6" rx="23.4" ry="18.4"/>
		<ellipse class="st2" cx="614.8" cy="424.6" rx="23.4" ry="18.4"/>
		<ellipse cx="614.4" cy="424.9" rx="16.1" ry="12.7"/>
	</g>
	<g>
		<ellipse class="st1" cx="557.8" cy="418.6" rx="23.4" ry="18.4"/>
		<ellipse class="st2" cx="557.8" cy="424.6" rx="23.4" ry="18.4"/>
		<ellipse cx="557.4" cy="424.9" rx="16.1" ry="12.7"/>
	</g>
	<g>
		<ellipse class="st1" cx="673.8" cy="474.6" rx="23.4" ry="18.4"/>
		<ellipse class="st2" cx="673.8" cy="480.6" rx="23.4" ry="18.4"/>
		<ellipse cx="673.4" cy="480.9" rx="16.1" ry="12.7"/>
	</g>
	<g>
		<ellipse class="st1" cx="614.8" cy="474.6" rx="23.4" ry="18.4"/>
		<ellipse class="st2" cx="614.8" cy="480.6" rx="23.4" ry="18.4"/>
		<ellipse cx="614.4" cy="480.9" rx="16.1" ry="12.7"/>
	</g>
	<g>
		<ellipse class="st1" cx="557.8" cy="474.6" rx="23.4" ry="18.4"/>
		<ellipse class="st2" cx="557.8" cy="480.6" rx="23.4" ry="18.4"/>
		<ellipse cx="557.4" cy="480.9" rx="16.1" ry="12.7"/>
	</g>
</g>
<path class="st3" d="M614.4,259.1c-23.7,0-42.8,16.4-42.8,36.6c30.6-6.1,59.5-7.1,85.6,0C657.2,275.5,638.1,259.1,614.4,259.1z"/>
<path class="st4" d="M589.4,271.1c-2.2,1.7-4.3,3.7-6.1,6l13.2,7.5L589.4,271.1z"/>
<path class="st4" d="M622.4,264.1c8.2,3.3,12.8,10.5,12.3,17.9h8.3c0-10.2-9.6-18.4-21.5-18.4c-0.2,0-0.4,0-0.5,0
	C621.4,263.8,621.9,264,622.4,264.1z"/>
<path class="st2" d="M663,307.7c-29.3,5.4-62.5,4.5-98,0v-14c29.6-7.4,60.6-11.3,98,0V307.7z"/>
</svg>
