<?xml version="1.0" encoding="utf-8"?>
<!-- Generator: Adobe Illustrator 22.1.0, SVG Export Plug-In . SVG Version: 6.00 Build 0)  -->
<svg version="1.1" id="Lager_1" xmlns="http://www.w3.org/2000/svg" xmlns:xlink="http://www.w3.org/1999/xlink" x="0px" y="0px"
	 viewBox="0 0 1366 768" style="enable-background:new 0 0 1366 768;" xml:space="preserve">
<style type="text/css">
	.st0{fill:#1A3AD6;}
	.st1{fill:#D000BC;}
	.st2{fill:#1A338E;}
</style>
<g>
	<circle class="st0" cx="554" cy="255" r="106"/>
</g>
<path class="st1" d="M409,336c16.3,29.8,81.3,24.1,178.1-29.1S716,200,692,176c-4-4-28,0-45,12c-8.1,5.7,16.4,21.5,8,32
	c-25.2,31.4-43.6,36.1-89,61c-49.8,27.4-68.5,30.3-106,34c-15.8,1.6-8-26-17-26C429.1,289,404.6,328,409,336z"/>
<ellipse class="st2" cx="516.5" cy="269.5" rx="9.5" ry="12.5"/>
<circle class="st2" cx="559" cy="235" r="13"/>
<circle class="st2" cx="555" cy="172" r="9"/>
<ellipse class="st2" cx="490.5" cy="207.5" rx="7.5" ry="14.5"/>
<ellipse class="st2" cx="605.5" cy="238" rx="7.5" ry="4"/>
<ellipse transform="matrix(0.1148 -0.9934 0.9934 0.1148 198.0754 880.2935)" class="st2" cx="593" cy="329" rx="8" ry="12"/>
<ellipse class="st2" cx="551" cy="347" rx="13" ry="7"/>
</svg>
